# xmcd CD database file
#
# Track frame offsets:
#	182
#	16062
#	33920
#	55515
#	73600
#
# Disc length: 1163 seconds
#
# Revision: 0
# Processed by: cddbd v1.4PL0 Copyright (c) Steve Scherf et al.
# Submitted via: CDex 1.51
#
DISCID=31048905
DTITLE=Jazzkantine - Es ist Jazz
DYEAR=1995
DGENRE=Jazz
TTITLE0=Es ist Jazz (radio tauglich)
TTITLE1=Es ist Jazz (ole's radio remix)
TTITLE2=Respekt (live*)
TTITLE3=Es ist Jazz (radio instrumental)
TTITLE4=Es ist Jazz (ole's instrumental)
EXTD=YEAR: 1995
EXTT0=
EXTT1=
EXTT2=
EXTT3=
EXTT4=
PLAYORDER=
